# xmcd CD database file
#
# Track frame offsets:
#	187
#	14774
#	33834
#	54854
#	71522
#	86732
#	103284
#	125002
#	140527
#	163457
#
# Disc length: 2482 seconds
#
# Revision: 4
# Processed by: cddbd v1.5.2PL0 Copyright (c) Steve Scherf et al.
# Submitted via: CDex 1.51
#
DISCID=9009b00a
DTITLE=Johnny Copeland - Flyin' High
DYEAR=1992
DGENRE=Blues
TTITLE0=Flyin' High (Yesterday)
TTITLE1=Hooked, Hog-Tied and Collared
TTITLE2=Greater Man
TTITLE3=Jambalaya (On The Bayou)
TTITLE4=San Antone
TTITLE5=Thigpen (Cornball)
TTITLE6=Promised Myself
TTITLE7=Love Song
TTITLE8=Circumstances
TTITLE9=Around The World
EXTD=YEAR: 1992
EXTT0=
EXTT1=
EXTT2=
EXTT3=
EXTT4=
EXTT5=
EXTT6=
EXTT7=
EXTT8=
EXTT9=
PLAYORDER=
